<svg width="59" height="58" viewBox="0 0 59 58" fill="none" xmlns="http://www.w3.org/2000/svg">
<path opacity="0.5" d="M22.25 29.0004H18.625V25.3754H22.25V29.0004ZM36.75 29.0004H33.125V25.3754H36.75V29.0004ZM51.25 25.3754V32.6254H47.625V41.6879C47.625 42.4431 47.4834 43.1511 47.2002 43.8119C46.917 44.4727 46.5299 45.0486 46.0391 45.5395C45.5482 46.0304 44.9723 46.4174 44.3115 46.7006C43.6507 46.9838 42.9427 47.1254 42.1875 47.1254H34.7109L22.25 57.7738V47.1254H13.1875C12.4323 47.1254 11.7243 46.9838 11.0635 46.7006C10.4027 46.4174 9.82682 46.0304 9.33594 45.5395C8.84505 45.0486 8.45801 44.4727 8.1748 43.8119C7.8916 43.1511 7.75 42.4431 7.75 41.6879V32.6254H4.125V25.3754H7.75V19.9379C7.75 19.1827 7.8916 18.4747 8.1748 17.8139C8.45801 17.1531 8.84505 16.5772 9.33594 16.0863C9.82682 15.5955 10.4027 15.2084 11.0635 14.9252C11.7243 14.642 12.4323 14.5004 13.1875 14.5004H25.875V8.58146C25.3275 8.2605 24.8932 7.81681 24.5723 7.25041C24.2513 6.684 24.0814 6.07983 24.0625 5.43791C24.0625 4.92814 24.1569 4.45614 24.3457 4.02189C24.5345 3.58765 24.7894 3.21004 25.1104 2.88908C25.4313 2.56812 25.8184 2.30379 26.2715 2.09611C26.7246 1.88843 27.1966 1.79403 27.6875 1.81291C28.1973 1.81291 28.6693 1.90731 29.1035 2.09611C29.5378 2.28491 29.9154 2.53979 30.2363 2.86076C30.5573 3.18172 30.8216 3.56877 31.0293 4.02189C31.237 4.47502 31.3314 4.94702 31.3125 5.43791C31.3125 6.07983 31.152 6.684 30.8311 7.25041C30.5101 7.81681 30.0664 8.2605 29.5 8.58146V14.5004H42.1875C42.9427 14.5004 43.6507 14.642 44.3115 14.9252C44.9723 15.2084 45.5482 15.5955 46.0391 16.0863C46.5299 16.5772 46.917 17.1531 47.2002 17.8139C47.4834 18.4747 47.625 19.1827 47.625 19.9379V25.3754H51.25ZM44 19.9379C44 19.447 43.8206 19.0222 43.4619 18.6635C43.1032 18.3048 42.6784 18.1254 42.1875 18.1254H13.1875C12.6966 18.1254 12.2718 18.3048 11.9131 18.6635C11.5544 19.0222 11.375 19.447 11.375 19.9379V41.6879C11.375 42.1788 11.5544 42.6036 11.9131 42.9623C12.2718 43.321 12.6966 43.5004 13.1875 43.5004H25.875V49.9008L33.3516 43.5004H42.1875C42.6784 43.5004 43.1032 43.321 43.4619 42.9623C43.8206 42.6036 44 42.1788 44 41.6879V19.9379ZM19.8994 33.0219C20.9378 34.0603 22.1273 34.8533 23.4678 35.4008C24.8083 35.9483 26.2148 36.2315 27.6875 36.2504C29.1602 36.2504 30.5667 35.9766 31.9072 35.4291C33.2477 34.8816 34.4372 34.0792 35.4756 33.0219L38.0244 35.599C36.6462 36.9773 35.0697 38.0346 33.2949 38.7709C31.5202 39.5072 29.651 39.8754 27.6875 39.8754C25.7428 39.8754 23.8831 39.5072 22.1084 38.7709C20.3337 38.0346 18.7477 36.9773 17.3506 35.599L19.8994 33.0219Z" fill="black"/>
</svg>
