<svg width="28" height="28" viewBox="0 0 28 28" fill="none" xmlns="http://www.w3.org/2000/svg">
<rect width="28" height="28" rx="14" fill="#020617"/>
<path d="M18.5398 10.7576C18.4742 10.7576 18.4185 10.7445 18.3725 10.7183C18.3266 10.6921 18.2905 10.6462 18.2643 10.5807L17.6936 9.24382L16.2569 8.61472C16.1913 8.5885 16.1454 8.55246 16.1192 8.50659C16.0929 8.46072 16.0798 8.40502 16.0798 8.33948C16.0798 8.27395 16.0929 8.21825 16.1192 8.17238C16.1454 8.12651 16.1913 8.09046 16.2569 8.06425L17.6936 7.45481L18.2643 6.17694C18.2905 6.1114 18.3266 6.06553 18.3725 6.03932C18.4185 6.01311 18.4742 6 18.5398 6C18.6054 6 18.6612 6.01311 18.7071 6.03932C18.753 6.06553 18.7891 6.1114 18.8153 6.17694L19.386 7.45481L20.8227 8.06425C20.8883 8.09046 20.9342 8.12651 20.9604 8.17238C20.9867 8.21825 20.9998 8.27395 20.9998 8.33948C20.9998 8.40502 20.9867 8.46072 20.9604 8.50659C20.9342 8.55246 20.8883 8.5885 20.8227 8.61472L19.386 9.24382L18.8153 10.5807C18.7891 10.6462 18.753 10.6921 18.7071 10.7183C18.6612 10.7445 18.6054 10.7576 18.5398 10.7576ZM18.5398 22.4747C18.4873 22.4747 18.4349 22.4616 18.3824 22.4354C18.3299 22.4092 18.2905 22.3633 18.2643 22.2977L17.6936 21.0199L16.2766 20.4104C16.211 20.3842 16.1651 20.3482 16.1389 20.3023C16.1126 20.2564 16.0995 20.2007 16.0995 20.1352C16.0995 20.0697 16.1126 20.014 16.1389 19.9681C16.1651 19.9222 16.211 19.8862 16.2766 19.86L17.6936 19.2505L18.2643 17.894C18.2905 17.8285 18.3266 17.7826 18.3725 17.7564C18.4185 17.7302 18.4742 17.7171 18.5398 17.7171C18.6054 17.7171 18.6612 17.7302 18.7071 17.7564C18.753 17.7826 18.7891 17.8285 18.8153 17.894L19.386 19.2505L20.803 19.86C20.8686 19.8862 20.9145 19.9222 20.9408 19.9681C20.967 20.014 20.9801 20.0697 20.9801 20.1352C20.9801 20.2007 20.967 20.2564 20.9408 20.3023C20.9145 20.3482 20.8686 20.3842 20.803 20.4104L19.386 21.0199L18.8153 22.2977C18.7891 22.3633 18.7497 22.4092 18.6973 22.4354C18.6448 22.4616 18.5923 22.4747 18.5398 22.4747ZM9.90031 19.0736C9.79535 19.0736 9.69367 19.0441 9.59527 18.9851C9.49687 18.9261 9.42143 18.8442 9.36895 18.7394L8.08975 16.0067L5.33456 14.7681C5.2296 14.7157 5.1476 14.6404 5.08856 14.5421C5.02952 14.4438 5 14.3422 5 14.2373C5 14.1325 5.02952 14.0309 5.08856 13.9326C5.1476 13.8343 5.2296 13.759 5.33456 13.7065L8.08975 12.468L9.36895 9.75497C9.42143 9.63701 9.49687 9.54854 9.59527 9.48957C9.69367 9.43059 9.79535 9.4011 9.90031 9.4011C10.0053 9.4011 10.1069 9.43059 10.2053 9.48957C10.3037 9.54854 10.3792 9.63046 10.4317 9.73531L11.7305 12.468L14.4661 13.7065C14.5841 13.759 14.6727 13.8343 14.7317 13.9326C14.7908 14.0309 14.8203 14.1325 14.8203 14.2373C14.8203 14.3422 14.7908 14.4438 14.7317 14.5421C14.6727 14.6404 14.5841 14.7157 14.4661 14.7681L11.7305 16.0067L10.4317 18.7394C10.3792 18.8573 10.3037 18.9425 10.2053 18.9949C10.1069 19.0474 10.0053 19.0736 9.90031 19.0736Z" fill="url(#paint0_linear_665_6108)"/>
<defs>
<linearGradient id="paint0_linear_665_6108" x1="15.7967" y1="13.7547" x2="13.3181" y2="25.2772" gradientUnits="userSpaceOnUse">
<stop stop-color="white" stop-opacity="0.96"/>
<stop offset="1" stop-color="white" stop-opacity="0.23"/>
</linearGradient>
</defs>
</svg>
