<svg width="33" height="33" viewBox="0 0 33 33" fill="none" xmlns="http://www.w3.org/2000/svg">
<mask id="path-1-inside-1_207_609" fill="white">
<path d="M32.0498 16.0249C32.0498 24.8752 24.8752 32.0498 16.0249 32.0498C7.1746 32.0498 0 24.8752 0 16.0249C0 7.1746 7.1746 0 16.0249 0C24.8752 0 32.0498 7.1746 32.0498 16.0249Z"/>
</mask>
<path d="M32.0498 16.0249C32.0498 24.8752 24.8752 32.0498 16.0249 32.0498C7.1746 32.0498 0 24.8752 0 16.0249C0 7.1746 7.1746 0 16.0249 0C24.8752 0 32.0498 7.1746 32.0498 16.0249Z" fill="white"/>
<path d="M29.0498 16.0249C29.0498 23.2184 23.2184 29.0498 16.0249 29.0498V35.0498C26.5321 35.0498 35.0498 26.5321 35.0498 16.0249H29.0498ZM16.0249 29.0498C8.83145 29.0498 3 23.2184 3 16.0249H-3C-3 26.5321 5.51774 35.0498 16.0249 35.0498V29.0498ZM3 16.0249C3 8.83145 8.83145 3 16.0249 3V-3C5.51774 -3 -3 5.51774 -3 16.0249H3ZM16.0249 3C23.2184 3 29.0498 8.83145 29.0498 16.0249H35.0498C35.0498 5.51774 26.5321 -3 16.0249 -3V3Z" fill="#007AFF" mask="url(#path-1-inside-1_207_609)"/>
<path d="M6.52881 11.2773H8.98863L11.5866 17.6576H11.6972L14.2952 11.2773H16.755V20.7736H14.8203V14.5927H14.742L12.3006 20.7272H10.9832L8.54181 14.5695H8.4635V20.7736H6.52881V11.2773Z" fill="#007AFF"/>
<path d="M17.8456 11.2773H20.0797L22.2309 15.367H22.323L24.4742 11.2773H26.7083L23.2673 17.4165V20.7736H21.2866V17.4165L17.8456 11.2773Z" fill="#007AFF"/>
</svg>
